# xmcd CD database file generated by OrangeCD 5.2
#
# Track frame offsets:
#	150
#	15845
#	37512
#	52300
#	67502
#	80735
#	94232
#	113042
#	133685
#	146727
#	166447
#	181712
#	196190
#	213125
#	229790
#
# Disc length: 3274 seconds
#
# Revision: 0
# Processed by: cddbd v1.5.1PL0 Copyright (c) Steve Scherf et al.
# Submitted via: OrangeCD 5.2
#
DISCID=bb0cc80f
DTITLE=Angelique Fernandez - The Greatest All-Time New Country Line Dance Party
DYEAR=1996
DGENRE=Country
TTITLE0=I Feel Lucky
TTITLE1=Boot Scootin' Boogie
TTITLE2=Swamp Thing
TTITLE3=Meet Me On The Corner
TTITLE4=Bring On The Neon
TTITLE5=What The Cowgirls Do
TTITLE6=Sunset Stampede
TTITLE7=Trashy Women
TTITLE8=Dumas Walker
TTITLE9=Wrong Train, Wrong Line
TTITLE10=Summertime Blues
TTITLE11=Cowboy's Country Line
TTITLE12=Walk Softly On This Heart Of Mine
TTITLE13=Line King
TTITLE14=Cotton Eye Joe
EXTD=
EXTT0=
EXTT1=
EXTT2=
EXTT3=
EXTT4=
EXTT5=
EXTT6=
EXTT7=
EXTT8=
EXTT9=
EXTT10=
EXTT11=
EXTT12=
EXTT13=
EXTT14=
PLAYORDER=
